PathFileType	4	(X/Y/Z)	c:/Users/goper/Files/vsCode/490R/osim_files/A04/A04_Slow_01.trc
DataRate	CameraRate	NumFrames	NumMarkers	Units                	OrigDataRate	OrigDataStartFrame	OrigNumFrames
120.00	120.00	8	36	mm	120.0	812	1299
                Frame#	Time	LPSIS			LASIS			LTH1			LTH2			LTH3			LTH4			LLFE			LMFE			LSH1			LSH2			LSH3			LSH4			LLMAL			LMMAL			LCAL			LMTP5			LTOE			LMTP1			RPSIS			RASIS			RTH1			RTH2			RTH3			RTH4			RLFE			RMFE			RSH1			RSH2			RSH3			RSH4			RLMAL			RMMAL			RCAL			RMTP1			RTOE			RMTP5		
		X1	Y1	Z1	X2	Y2	Z2	X3	Y3	Z3	X4	Y4	Z4	X5	Y5	Z5	X6	Y6	Z6	X7	Y7	Z7	X8	Y8	Z8	X9	Y9	Z9	X10	Y10	Z10	X11	Y11	Z11	X12	Y12	Z12	X13	Y13	Z13	X14	Y14	Z14	X15	Y15	Z15	X16	Y16	Z16	X17	Y17	Z17	X18	Y18	Z18	X19	Y19	Z19	X20	Y20	Z20	X21	Y21	Z21	X22	Y22	Z22	X23	Y23	Z23	X24	Y24	Z24	X25	Y25	Z25	X26	Y26	Z26	X27	Y27	Z27	X28	Y28	Z28	X29	Y29	Z29	X30	Y30	Z30	X31	Y31	Z31	X32	Y32	Z32	X33	Y33	Z33	X34	Y34	Z34	X35	Y35	Z35	X36	Y36	Z36

812	6.75833	-1124.76599	1060.86377	427.01038	-1352.77173	1026.63049	495.35751	-1395.53455	686.34454	534.26172	-1419.67188	649.27618	532.98560	-1448.86975	716.80695	532.99530	-1466.31836	676.07562	532.01636	-1487.57312	567.47626	520.64099	-1498.57690	568.36047	380.43256	-1469.86279	461.68817	524.18243	-1482.91345	420.35284	522.27051	-1530.01306	473.18176	510.98151	-1533.36951	429.77615	509.23947	-1503.15039	137.66524	483.85284	-1525.67249	142.12440	399.55869	-1443.51648	93.37447	427.63586	-1645.98596	91.25965	519.16101	-1692.04639	107.86228	457.09906	-1676.59656	92.79115	413.22546	-1117.05664	1049.02344	321.48224	-1332.92700	1020.51978	208.28938	-1175.23828	730.15692	204.60945	-1176.59680	687.87573	209.11937	-1236.26282	724.52637	192.14284	-1228.67383	676.13782	202.92194	-1206.30859	544.78876	235.48997	-1228.75781	544.18640	350.90945	-1113.22339	344.19940	263.04190	-1112.64075	297.12173	272.76727	-1171.57422	334.38150	249.25571	-1161.15002	288.40146	257.88412	-1109.20398	102.73688	275.73929	-1154.71545	115.85202	403.04660	-1049.73987	64.73792	363.32913	-1275.93176	56.13113	370.20209	-1293.01184	76.66660	320.50967	-1250.25012	50.57563	252.98145
813	6.76667	-1132.47876	1059.82446	426.98221	-1360.49280	1024.87646	495.54675	-1399.57959	682.99268	532.32660	-1423.69092	645.85364	530.95111	-1452.72498	713.30859	531.92078	-1470.53650	672.50226	530.53534	-1491.88733	564.32703	518.63422	-1504.23047	566.33636	378.47256	-1479.04944	457.54346	523.25525	-1492.68579	417.20224	519.60583	-1537.89294	471.74133	508.88379	-1542.69360	428.22235	507.21521	-1523.88647	135.59436	480.22525	-1546.71936	141.43733	396.12329	-1465.29895	89.73065	423.82178	-1667.80066	94.32788	516.60913	-1714.20679	113.46150	455.10782	-1699.45996	97.56016	411.08905	-1124.77783	1048.20142	321.44370	-1340.71790	1019.45679	208.37915	-1180.47693	730.30096	204.82999	-1181.55945	688.08899	209.40768	-1240.84399	724.15491	191.55832	-1233.58411	675.95447	203.14111	-1210.02283	544.50000	235.55661	-1232.44238	543.77069	351.13135	-1115.25391	344.61093	263.18591	-1114.45911	297.49435	272.90228	-1173.55164	334.33762	249.35419	-1162.92688	288.49319	257.95120	-1109.75256	103.11596	275.83731	-1155.19470	115.95370	403.04919	-1049.80103	65.26449	363.35709	-1276.02515	55.85346	370.25421	-1293.12000	76.39314	320.49075	-1250.31067	50.51126	253.00786
814	6.77500	-1140.37219	1058.65344	426.96933	-1368.26221	1023.00262	495.56296	-1403.69800	679.59015	530.41956	-1427.58386	642.36786	528.92810	-1457.05420	709.58124	530.47522	-1474.58435	668.76678	528.93396	-1496.06506	561.09186	516.45856	-1509.95203	564.05273	377.17267	-1485.79016	454.30493	518.95282	-1503.05505	413.10703	515.40149	-1545.43103	470.21799	506.67453	-1551.74939	427.28348	504.77103	-1543.93787	133.75371	476.13489	-1566.96948	141.30373	392.47665	-1487.36975	86.38842	419.11420	-1688.68799	97.77841	514.05603	-1735.11926	119.39862	453.37863	-1721.30042	102.59698	408.89594	-1132.62634	1047.26208	321.46017	-1348.65637	1018.38300	208.47197	-1185.79309	730.46698	205.09888	-1186.50647	688.09625	209.71075	-1246.06750	723.69818	191.80338	-1238.47632	675.73810	203.33891	-1213.94678	544.24023	235.66182	-1236.40210	543.40082	351.26437	-1117.28003	345.19415	263.24936	-1116.26941	297.98843	272.96628	-1175.72791	334.38528	249.44168	-1164.64563	288.56183	258.01328	-1110.27954	103.57856	275.88068	-1155.82227	116.09986	403.02188	-1049.63232	65.91682	363.28156	-1276.13989	55.57939	370.26791	-1293.36182	76.10918	320.53616	-1250.43323	50.45999	253.03511
815	6.78333	-1148.35681	1057.42737	426.97543	-1375.95728	1020.95990	495.77408	-1407.88672	676.06757	528.49823	-1431.51147	638.72485	526.77625	-1461.53101	705.75848	528.92993	-1478.66479	664.79565	527.09113	-1499.93347	557.70520	514.12238	-1515.23303	562.03510	375.01920	-1493.32349	450.70120	515.63879	-1511.78979	410.28729	512.49200	-1552.54529	468.68527	504.36084	-1560.35925	426.04645	502.35760	-1563.17004	132.35481	471.82605	-1586.92993	141.16841	388.88849	-1508.84692	83.51685	414.25439	-1708.58411	101.40834	511.45987	-1754.68848	124.39052	451.59671	-1742.14917	108.02752	406.72931	-1140.61548	1046.31396	321.50208	-1356.66760	1017.23029	208.57281	-1191.23901	730.56177	205.39426	-1191.58960	688.22662	210.07092	-1251.45667	723.33301	192.00336	-1243.50183	675.48474	203.53925	-1217.91333	543.90558	235.75667	-1240.59741	543.05341	351.32867	-1119.56702	345.60220	263.35349	-1118.19519	298.41855	273.03485	-1177.89697	334.33530	249.50554	-1166.51404	288.64319	258.09610	-1110.79382	104.07486	275.89972	-1156.42249	116.25335	403.03424	-1049.83167	66.48222	363.36316	-1276.23096	55.30680	370.30478	-1293.39966	75.81561	320.81192	-1250.51111	50.38608	253.06064
816	6.79167	-1156.38525	1056.19714	427.05020	-1384.04175	1019.01440	495.88724	-1412.05530	672.39325	526.33276	-1435.51782	634.93903	524.38965	-1465.83118	701.83124	527.35046	-1482.97339	660.77112	525.20569	-1503.62830	554.33496	511.51050	-1520.60144	559.98413	372.75336	-1500.75098	446.99777	512.51971	-1520.07947	407.62231	509.35614	-1559.24976	467.13516	501.93503	-1568.57910	424.90118	499.90060	-1581.11121	131.89534	468.25266	-1605.73340	141.68129	385.20486	-1529.39624	81.35783	409.32983	-1727.42249	105.26698	508.94971	-1773.28674	130.06497	449.48734	-1761.98730	113.65109	404.65247	-1148.62207	1045.31799	321.52496	-1364.80530	1016.10266	208.72511	-1196.73389	730.67303	205.76442	-1196.74072	688.31134	210.29773	-1256.93787	722.85583	192.23741	-1248.62097	675.19342	203.76512	-1222.09082	543.50732	235.80952	-1244.82593	542.56671	351.33289	-1121.92419	346.02536	263.42950	-1120.24060	298.81952	273.13989	-1180.15405	334.31818	249.58421	-1168.56323	288.70349	258.12595	-1111.34705	104.56918	275.97083	-1157.06165	116.42934	403.02783	-1050.45959	66.88548	363.48746	-1276.34814	54.99720	370.38828	-1293.62573	75.56363	320.72629	-1250.66943	50.36697	252.93094
817	6.80000	-1164.56165	1054.90674	427.09866	-1391.95593	1016.85767	496.08170	-1416.43103	668.73248	524.14807	-1439.67017	631.15912	521.95764	-1470.35400	697.83435	525.62061	-1487.11292	656.75037	523.15070	-1507.20093	550.91357	508.74918	-1525.90027	557.95477	370.25241	-1507.22644	443.68628	509.01071	-1527.43884	405.42297	507.12137	-1565.68030	465.51129	499.37079	-1576.25342	423.61884	497.26059	-1598.53564	131.42531	464.25247	-1623.84631	142.45847	381.54291	-1549.14270	79.62209	404.38702	-1745.16931	109.20167	506.34430	-1790.89441	135.82166	447.45004	-1780.80347	119.39960	402.56042	-1156.87793	1044.27222	321.59665	-1372.88330	1014.83698	208.91724	-1202.47119	730.73938	206.06331	-1202.15723	688.36194	210.65735	-1262.54211	722.37012	192.43796	-1253.86194	674.85101	203.96010	-1226.37231	543.04572	235.85841	-1249.30676	542.11914	351.36273	-1124.25000	346.51627	263.48508	-1122.66992	299.17874	273.16562	-1182.54077	334.26779	249.59763	-1170.60547	288.75458	258.14221	-1111.85803	105.14500	276.04474	-1157.65015	116.61186	403.02158	-1050.76794	67.57687	363.52002	-1276.56628	54.72470	370.42456	-1293.84204	75.29801	320.78003	-1250.76062	50.29887	252.95018
818	6.80833	-1172.70422	1053.60718	427.22772	-1399.98511	1014.85052	496.27405	-1420.85730	665.04498	521.79559	-1443.83252	627.34906	519.34784	-1474.93884	693.85443	523.93945	-1491.46716	652.68896	521.13678	-1510.44116	547.49713	505.83182	-1531.18445	556.14001	367.66833	-1513.66443	440.32446	505.40530	-1534.98438	402.70700	503.53952	-1571.51489	463.91592	496.77875	-1583.45874	422.49237	494.60513	-1614.92261	131.21213	460.31100	-1640.57935	143.67975	377.94601	-1567.72668	78.27074	399.62946	-1761.81763	113.07177	503.75562	-1807.29541	141.44577	445.46005	-1798.13550	125.04574	400.44281	-1165.09656	1043.21509	321.68839	-1381.12183	1013.50281	209.22107	-1208.36707	730.73584	206.45642	-1207.61987	688.31073	210.84991	-1268.29871	721.84064	192.58183	-1259.17847	674.55121	204.06020	-1230.80408	542.54138	235.90199	-1253.71997	541.56763	351.34790	-1127.16553	346.75735	263.52594	-1124.67554	299.69049	273.16437	-1184.99792	334.23047	249.57616	-1172.64844	288.87570	258.14786	-1112.54089	105.69588	276.03232	-1158.42834	116.80954	402.78677	-1050.72998	68.49232	363.41040	-1276.68054	54.44511	370.48892	-1294.04736	75.06315	320.80667	-1250.80383	50.25720	252.90675
819	6.81667	-1181.01990	1052.23035	427.37363	-1408.34241	1012.81110	496.42142	-1425.24634	661.36420	519.28845	-1448.10413	623.49664	516.49677	-1479.68762	689.82086	522.13092	-1496.26770	647.96936	518.88086	-1513.72961	544.13550	502.78067	-1536.57837	554.37036	365.11765	-1519.92004	437.04987	501.60233	-1542.27161	400.02618	499.92606	-1577.15271	462.26648	494.27386	-1590.28979	421.25314	491.92157	-1630.33154	131.15074	456.42816	-1656.44226	145.04776	374.41125	-1585.17371	77.30296	394.82880	-1777.29382	116.75681	501.11789	-1822.49414	146.85609	443.49167	-1814.19006	130.42216	398.29266	-1173.37524	1042.06299	321.84299	-1389.44849	1012.21082	209.54880	-1214.30042	730.63147	206.56287	-1213.25732	688.27515	211.09042	-1274.12134	721.23956	192.66730	-1264.68823	674.13086	204.10353	-1235.36255	542.00781	235.88649	-1258.31409	540.96234	351.31964	-1129.88928	347.13873	263.54147	-1126.97388	300.16364	273.17130	-1187.60510	334.20139	249.54909	-1174.75146	288.92270	258.13132	-1113.19006	106.21030	276.07568	-1158.88879	117.22427	402.93802	-1051.06201	69.21190	363.41470	-1276.80298	54.11711	370.59467	-1294.26282	74.77748	320.83795	-1250.94617	50.19686	252.92979
